<?xml version="1.0" encoding="UTF-8"?>
<svg width="28px" height="28px" viewBox="0 0 28 28" version="1.1" xmlns="http://www.w3.org/2000/svg" xmlns:xlink="http://www.w3.org/1999/xlink">
    <title>xinren_ic_play@2x</title>
    <g id="页面-1" stroke="none" stroke-width="1" fill="none" fill-rule="evenodd">
        <g id="专辑分享落地页_h5（20220223定稿）备份" transform="translate(-331.000000, -703.000000)">
            <g id="编组-28" transform="translate(0.000000, 557.000000)">
                <g id="编组-10" transform="translate(16.000000, 66.000000)">
                    <g id="按钮播" transform="translate(315.000000, 80.000000)">
                        <circle id="合并形状" cx="14" cy="14" r="14"></circle>
                        <path d="M16.4399786,10.9083287 L20.267954,16.7335086 C20.625851,17.2781345 20.4744773,18.0097739 19.9298514,18.3676709 C19.7373883,18.4941467 19.5121217,18.5615385 19.2818215,18.5615385 L11.6258708,18.5615385 C10.9741748,18.5615385 10.4458708,18.0332345 10.4458708,17.3815385 C10.4458708,17.1512383 10.5132626,16.9259717 10.6397383,16.7335086 L14.4677137,10.9083287 C14.8256107,10.3637027 15.5572501,10.2123291 16.1018761,10.5702261 C16.2364691,10.6586729 16.3515318,10.7737357 16.4399786,10.9083287 Z" id="三角形备份-2" fill="#666666" transform="translate(15.453846, 13.984615) rotate(-270.000000) translate(-15.453846, -13.984615) "></path>
                    </g>
                </g>
            </g>
        </g>
    </g>
</svg>