<?xml version="1.0" encoding="UTF-8"?>
<svg width="28px" height="28px" viewBox="0 0 28 28" version="1.1" xmlns="http://www.w3.org/2000/svg" xmlns:xlink="http://www.w3.org/1999/xlink">
    <title>xinren_ic_stop@2x</title>
    <g id="页面-1" stroke="none" stroke-width="1" fill="none" fill-rule="evenodd">
        <g id="专辑分享落地页_h5（20220223定稿）备份" transform="translate(-331.000000, -630.000000)">
            <g id="编组-28" transform="translate(0.000000, 557.000000)">
                <g id="编组-10" transform="translate(16.000000, 66.000000)">
                    <g id="分组-12" transform="translate(315.000000, 7.000000)">
                        <path d="M10.8070175,8.16666667 C11.6209109,8.16666667 12.2807018,8.82645756 12.2807018,9.64035088 L12.2807018,18.3596491 C12.2807018,19.1735424 11.6209109,19.8333333 10.8070175,19.8333333 C9.99312423,19.8333333 9.33333333,19.1735424 9.33333333,18.3596491 L9.33333333,9.64035088 C9.33333333,8.82645756 9.99312423,8.16666667 10.8070175,8.16666667 Z M17.1929825,8.16666667 C18.0068758,8.16666667 18.6666667,8.82645756 18.6666667,9.64035088 L18.6666667,18.3596491 C18.6666667,19.1735424 18.0068758,19.8333333 17.1929825,19.8333333 C16.3790891,19.8333333 15.7192982,19.1735424 15.7192982,18.3596491 L15.7192982,9.64035088 C15.7192982,8.82645756 16.3790891,8.16666667 17.1929825,8.16666667 Z" id="形状结合" fill="#666666"></path>
                    </g>
                </g>
            </g>
        </g>
    </g>
</svg>